<svg width="55" height="55" viewBox="0 0 55 55" fill="none" xmlns="http://www.w3.org/2000/svg">
<g id="4">
<circle id="BG" cx="27.5" cy="27.5" r="27.5" fill="#AD343E"/>
<g id="logo-github 1">
<g id="Group">
<path id="Vector" fill-rule="evenodd" clip-rule="evenodd" d="M26.7284 15.0001C19.6747 15.0001 14 20.6748 14 27.7284C14 33.3501 17.6594 38.1233 22.6977 39.8204C23.3341 39.9265 23.5463 39.5552 23.5463 39.184C23.5463 38.8658 23.5463 38.0702 23.5463 37.0095C19.9929 37.8051 19.2505 35.3124 19.2505 35.3124C18.6671 33.8274 17.8185 33.4562 17.8185 33.4562C16.6517 32.6607 17.9246 32.6607 17.9246 32.6607C19.1974 32.7667 19.8869 33.9865 19.8869 33.9865C21.0006 35.9488 22.8568 35.3655 23.5993 35.0472C23.7054 34.1987 24.0236 33.6683 24.3948 33.3501C21.584 33.0319 18.614 31.9182 18.614 27.039C18.614 25.6601 19.0913 24.4933 19.9399 23.6447C19.8338 23.3265 19.3565 22.0537 20.046 20.2505C20.046 20.2505 21.1067 19.9323 23.5463 21.5764C24.5539 21.3112 25.6677 21.1521 26.7284 21.1521C27.7891 21.1521 28.9028 21.3112 29.9105 21.5764C32.3501 19.9323 33.4108 20.2505 33.4108 20.2505C34.1002 22.0007 33.6759 23.2735 33.5168 23.6447C34.3124 24.5463 34.8427 25.6601 34.8427 27.039C34.8427 31.9182 31.8727 32.9789 29.0089 33.2971C29.4862 33.6683 29.8574 34.4639 29.8574 35.6306C29.8574 37.3277 29.8574 38.7066 29.8574 39.1309C29.8574 39.4491 30.0696 39.8734 30.759 39.7673C35.7973 38.1233 39.4567 33.3501 39.4567 27.7284C39.4567 20.6748 33.782 15.0001 26.7284 15.0001Z" fill="white"/>
</g>
</g>
</g>
</svg>
