<svg width="55" height="55" viewBox="0 0 55 55" fill="none" xmlns="http://www.w3.org/2000/svg">
<g id="3">
<circle id="BG" cx="27.5" cy="27.5" r="27.5" fill="#AD343E"/>
<g id="logo-instagram 1">
<g id="Group">
<path id="Vector" d="M27.4983 16.6004C31.0512 16.6004 31.4719 16.6137 32.8754 16.6777C33.7193 16.688 34.5551 16.843 35.3466 17.1358C35.9206 17.3572 36.4419 17.6963 36.8769 18.1313C37.3119 18.5663 37.6509 19.0875 37.8723 19.6615C38.1651 20.453 38.3201 21.2889 38.3304 22.1327C38.3938 23.5362 38.4077 23.957 38.4077 27.5098C38.4077 31.0626 38.3944 31.4834 38.3304 32.8869C38.3201 33.7307 38.1651 34.5666 37.8723 35.3581C37.6509 35.932 37.3119 36.4533 36.8769 36.8883C36.4419 37.3233 35.9206 37.6624 35.3466 37.8838C34.5551 38.1766 33.7193 38.3316 32.8754 38.3419C31.4725 38.4052 31.0518 38.4192 27.4983 38.4192C23.9449 38.4192 23.5242 38.4059 22.1213 38.3419C21.2774 38.3316 20.4416 38.1766 19.6501 37.8838C19.0761 37.6624 18.5548 37.3233 18.1198 36.8883C17.6848 36.4533 17.3457 35.932 17.1244 35.3581C16.8315 34.5666 16.6766 33.7307 16.6663 32.8869C16.6029 31.4834 16.589 31.0626 16.589 27.5098C16.589 23.957 16.6023 23.5362 16.6663 22.1327C16.6766 21.2889 16.8315 20.453 17.1244 19.6615C17.3457 19.0875 17.6848 18.5663 18.1198 18.1313C18.5548 17.6963 19.0761 17.3572 19.6501 17.1358C20.4416 16.843 21.2774 16.688 22.1213 16.6777C23.5248 16.6143 23.9455 16.6004 27.4983 16.6004ZM27.4983 14.2027C23.8866 14.2027 23.4316 14.2179 22.0123 14.2825C20.9079 14.3045 19.8152 14.5136 18.7807 14.901C17.8933 15.2353 17.0895 15.7593 16.4255 16.4363C15.7479 17.1006 15.2235 17.9048 14.8889 18.7928C14.5015 19.8273 14.2924 20.92 14.2705 22.0244C14.2071 23.4425 14.1919 23.8974 14.1919 27.5092C14.1919 31.1209 14.2071 31.5759 14.2717 32.9952C14.2937 34.0996 14.5028 35.1923 14.8902 36.2268C15.2244 37.1147 15.7483 37.9189 16.4255 38.5833C17.0899 39.2605 17.8941 39.7844 18.782 40.1186C19.8165 40.506 20.9091 40.7151 22.0136 40.737C23.4329 40.8004 23.886 40.8169 27.4996 40.8169C31.1133 40.8169 31.5663 40.8017 32.9857 40.737C34.0901 40.7151 35.1828 40.506 36.2172 40.1186C37.1009 39.7761 37.9033 39.2529 38.5733 38.5825C39.2432 37.9122 39.7658 37.1094 40.1078 36.2255C40.4951 35.191 40.7043 34.0984 40.7262 32.9939C40.7896 31.5759 40.8048 31.1209 40.8048 27.5092C40.8048 23.8974 40.7896 23.4425 40.725 22.0231C40.703 20.9187 40.4939 19.826 40.1065 18.7915C39.7723 17.9037 39.2484 17.0994 38.5712 16.435C37.9068 15.7579 37.1026 15.2339 36.2147 14.8997C35.1802 14.5124 34.0875 14.3032 32.9831 14.2813C31.565 14.2179 31.1101 14.2027 27.4983 14.2027Z" fill="white"/>
<path id="Vector_2" d="M27.4948 20.6834C26.1433 20.6834 24.8222 21.0841 23.6985 21.835C22.5748 22.5858 21.699 23.653 21.1818 24.9016C20.6646 26.1502 20.5293 27.5241 20.7929 28.8496C21.0566 30.1752 21.7074 31.3927 22.663 32.3483C23.6187 33.304 24.8362 33.9548 26.1617 34.2184C27.4872 34.4821 28.8611 34.3468 30.1097 33.8296C31.3583 33.3124 32.4255 32.4366 33.1764 31.3129C33.9272 30.1892 34.328 28.868 34.328 27.5166C34.328 25.7043 33.6081 23.9662 32.3266 22.6848C31.0451 21.4033 29.3071 20.6834 27.4948 20.6834ZM27.4948 31.952C26.6175 31.952 25.76 31.6919 25.0306 31.2045C24.3012 30.7172 23.7327 30.0244 23.397 29.2139C23.0612 28.4035 22.9734 27.5116 23.1445 26.6512C23.3157 25.7908 23.7381 25.0005 24.3584 24.3802C24.9788 23.7599 25.7691 23.3374 26.6295 23.1663C27.4899 22.9952 28.3817 23.083 29.1922 23.4187C30.0027 23.7544 30.6954 24.3229 31.1828 25.0523C31.6702 25.7817 31.9303 26.6393 31.9303 27.5166C31.9303 28.6929 31.463 29.8211 30.6312 30.6529C29.7993 31.4847 28.6712 31.952 27.4948 31.952Z" fill="white"/>
<path id="Vector_3" d="M34.6212 22.0063C35.5031 22.0063 36.218 21.2914 36.218 20.4095C36.218 19.5276 35.5031 18.8127 34.6212 18.8127C33.7393 18.8127 33.0244 19.5276 33.0244 20.4095C33.0244 21.2914 33.7393 22.0063 34.6212 22.0063Z" fill="white"/>
</g>
</g>
</g>
</svg>
