<svg width="267" height="55" viewBox="0 0 267 55" fill="none" xmlns="http://www.w3.org/2000/svg">
<circle cx="27.5" cy="27.5" r="27.5" fill="#AD343E"/>
<path d="M39.6763 21.5809C38.8532 21.9467 37.9844 22.1753 37.0699 22.3125C37.9844 21.7638 38.7161 20.895 39.0361 19.8432C38.1673 20.3462 37.2071 20.7121 36.1554 20.9407C35.3323 20.0719 34.1434 19.5232 32.8631 19.5232C30.3938 19.5232 28.3818 21.5351 28.3818 24.0044C28.3818 24.3702 28.4276 24.6903 28.519 25.0104C24.8152 24.8275 21.4771 23.0441 19.2365 20.3005C18.8707 20.9864 18.6421 21.718 18.6421 22.5411C18.6421 24.0958 19.4194 25.4676 20.654 26.2907C19.9224 26.245 19.2365 26.0621 18.5963 25.742V25.7877C18.5963 27.9826 20.1511 29.8117 22.2087 30.2232C21.8429 30.3146 21.4314 30.3604 21.0199 30.3604C20.7455 30.3604 20.4254 30.3146 20.1511 30.2689C20.7455 32.0523 22.3917 33.3783 24.3579 33.3783C22.8032 34.5672 20.8827 35.2989 18.7793 35.2989C18.4134 35.2989 18.0476 35.2989 17.7275 35.2531C19.7395 36.5335 22.0716 37.2651 24.6323 37.2651C32.9088 37.2651 37.4357 30.4061 37.4357 24.4616C37.4357 24.2787 37.4357 24.0501 37.4357 23.8672C38.3045 23.2727 39.0819 22.4954 39.6763 21.5809Z" fill="white"/>
<circle cx="94.5" cy="27.5" r="27.5" fill="#AD343E"/>
<path d="M91.9591 39.8901V28.9814H88.2881V24.73H91.9591V21.5948C91.9591 17.9564 94.1813 15.9752 97.4271 15.9752C98.9818 15.9752 100.318 16.0909 100.707 16.1427V19.945L98.4564 19.9461C96.6911 19.9461 96.3493 20.7849 96.3493 22.0157V24.73H100.559L100.011 28.9814H96.3493V39.8901H91.9591Z" fill="white"/>
<circle cx="161.5" cy="27.5" r="27.5" fill="#AD343E"/>
<path d="M161.498 16.6004C165.051 16.6004 165.472 16.6137 166.875 16.6777C167.719 16.688 168.555 16.843 169.347 17.1358C169.921 17.3572 170.442 17.6963 170.877 18.1313C171.312 18.5663 171.651 19.0875 171.872 19.6615C172.165 20.453 172.32 21.2889 172.33 22.1327C172.394 23.5362 172.408 23.957 172.408 27.5098C172.408 31.0626 172.394 31.4834 172.33 32.8869C172.32 33.7307 172.165 34.5666 171.872 35.3581C171.651 35.932 171.312 36.4533 170.877 36.8883C170.442 37.3233 169.921 37.6624 169.347 37.8838C168.555 38.1766 167.719 38.3316 166.875 38.3419C165.473 38.4052 165.052 38.4192 161.498 38.4192C157.945 38.4192 157.524 38.4059 156.121 38.3419C155.277 38.3316 154.442 38.1766 153.65 37.8838C153.076 37.6624 152.555 37.3233 152.12 36.8883C151.685 36.4533 151.346 35.932 151.124 35.3581C150.832 34.5666 150.677 33.7307 150.666 32.8869C150.603 31.4834 150.589 31.0626 150.589 27.5098C150.589 23.957 150.602 23.5362 150.666 22.1327C150.677 21.2889 150.832 20.453 151.124 19.6615C151.346 19.0875 151.685 18.5663 152.12 18.1313C152.555 17.6963 153.076 17.3572 153.65 17.1358C154.442 16.843 155.277 16.688 156.121 16.6777C157.525 16.6143 157.946 16.6004 161.498 16.6004ZM161.498 14.2027C157.887 14.2027 157.432 14.2179 156.012 14.2825C154.908 14.3045 153.815 14.5136 152.781 14.901C151.893 15.2353 151.09 15.7593 150.425 16.4363C149.748 17.1006 149.223 17.9048 148.889 18.7928C148.502 19.8273 148.292 20.92 148.27 22.0244C148.207 23.4425 148.192 23.8974 148.192 27.5092C148.192 31.1209 148.207 31.5759 148.272 32.9952C148.294 34.0996 148.503 35.1923 148.89 36.2268C149.224 37.1147 149.748 37.9189 150.425 38.5833C151.09 39.2605 151.894 39.7844 152.782 40.1186C153.816 40.506 154.909 40.7151 156.014 40.737C157.433 40.8004 157.886 40.8169 161.5 40.8169C165.113 40.8169 165.566 40.8017 166.986 40.737C168.09 40.7151 169.183 40.506 170.217 40.1186C171.101 39.7761 171.903 39.2529 172.573 38.5825C173.243 37.9122 173.766 37.1094 174.108 36.2255C174.495 35.191 174.704 34.0984 174.726 32.9939C174.79 31.5759 174.805 31.1209 174.805 27.5092C174.805 23.8974 174.79 23.4425 174.725 22.0231C174.703 20.9187 174.494 19.826 174.107 18.7915C173.772 17.9037 173.248 17.0994 172.571 16.435C171.907 15.7579 171.103 15.2339 170.215 14.8997C169.18 14.5124 168.088 14.3032 166.983 14.2813C165.565 14.2179 165.11 14.2027 161.498 14.2027Z" fill="white"/>
<path d="M161.495 20.6834C160.143 20.6834 158.822 21.0841 157.698 21.835C156.575 22.5858 155.699 23.653 155.182 24.9016C154.665 26.1502 154.529 27.5241 154.793 28.8496C155.057 30.1752 155.707 31.3927 156.663 32.3483C157.619 33.304 158.836 33.9548 160.162 34.2184C161.487 34.4821 162.861 34.3468 164.11 33.8296C165.358 33.3124 166.426 32.4366 167.176 31.3129C167.927 30.1892 168.328 28.868 168.328 27.5166C168.328 25.7043 167.608 23.9662 166.327 22.6848C165.045 21.4033 163.307 20.6834 161.495 20.6834ZM161.495 31.952C160.618 31.952 159.76 31.6919 159.031 31.2045C158.301 30.7172 157.733 30.0244 157.397 29.2139C157.061 28.4035 156.973 27.5116 157.145 26.6512C157.316 25.7908 157.738 25.0005 158.358 24.3802C158.979 23.7599 159.769 23.3374 160.629 23.1663C161.49 22.9952 162.382 23.083 163.192 23.4187C164.003 23.7544 164.695 24.3229 165.183 25.0523C165.67 25.7817 165.93 26.6393 165.93 27.5166C165.93 28.6929 165.463 29.8211 164.631 30.6529C163.799 31.4847 162.671 31.952 161.495 31.952Z" fill="white"/>
<path d="M168.621 22.0063C169.503 22.0063 170.218 21.2914 170.218 20.4095C170.218 19.5276 169.503 18.8127 168.621 18.8127C167.739 18.8127 167.024 19.5276 167.024 20.4095C167.024 21.2914 167.739 22.0063 168.621 22.0063Z" fill="white"/>
<circle cx="228.5" cy="27.5" r="27.5" fill="#AD343E"/>
<path fill-rule="evenodd" clip-rule="evenodd" d="M227.728 15.0001C220.675 15.0001 215 20.6748 215 27.7284C215 33.3501 218.659 38.1233 223.698 39.8204C224.334 39.9265 224.546 39.5552 224.546 39.184C224.546 38.8658 224.546 38.0702 224.546 37.0095C220.993 37.8051 220.25 35.3124 220.25 35.3124C219.667 33.8274 218.819 33.4562 218.819 33.4562C217.652 32.6607 218.925 32.6607 218.925 32.6607C220.197 32.7667 220.887 33.9865 220.887 33.9865C222.001 35.9488 223.857 35.3655 224.599 35.0472C224.705 34.1987 225.024 33.6683 225.395 33.3501C222.584 33.0319 219.614 31.9182 219.614 27.039C219.614 25.6601 220.091 24.4933 220.94 23.6447C220.834 23.3265 220.357 22.0537 221.046 20.2505C221.046 20.2505 222.107 19.9323 224.546 21.5764C225.554 21.3112 226.668 21.1521 227.728 21.1521C228.789 21.1521 229.903 21.3112 230.91 21.5764C233.35 19.9323 234.411 20.2505 234.411 20.2505C235.1 22.0007 234.676 23.2735 234.517 23.6447C235.312 24.5463 235.843 25.6601 235.843 27.039C235.843 31.9182 232.873 32.9789 230.009 33.2971C230.486 33.6683 230.857 34.4639 230.857 35.6306C230.857 37.3277 230.857 38.7066 230.857 39.1309C230.857 39.4491 231.07 39.8734 231.759 39.7673C236.797 38.1233 240.457 33.3501 240.457 27.7284C240.457 20.6748 234.782 15.0001 227.728 15.0001Z" fill="white"/>
</svg>
